Y9_100_1_ground_reaction
inDegrees=no
nColumns=28
nRows=75
DataType=double
version=3
OpenSimVersion=4.0
endheader
time	ground_force_1_vx	ground_force_1_vy	ground_force_1_vz	ground_force_1_px	ground_force_1_py	ground_force_1_pz	ground_torque_1_x	ground_torque_1_y	ground_torque_1_z	ground_force_2_vx	ground_force_2_vy	ground_force_2_vz	ground_force_2_px	ground_force_2_py	ground_force_2_pz	ground_torque_2_x	ground_torque_2_y	ground_torque_2_z	ground_force_3_vx	ground_force_3_vy	ground_force_3_vz	ground_force_3_px	ground_force_3_py	ground_force_3_pz	ground_torque_3_x	ground_torque_3_y	ground_torque_3_z
1.2875	140.33	727.8200000000001	50.74	-0.20924	0	-0.3141600000000001	0	0.51105	-0	-18.85	229.7	15.98	0.31939	0	-0.17263	0	0.15057	-0	0	0	-0	0.902	0	-0.2	0	0	-0
1.288	140.34	726.38	50.37	-0.20906	0	-0.31421	0	0.56956	-0	-19.58	235.41	15.61	0.32034	0	-0.17396	0	0.06837	-0	0	0	-0	0.902	0	-0.2	0	0	-0
1.2885	140.34	726.39	50.38	-0.20906	0	-0.31382	0	0.4387799999999999	-0	-20.7	238.26	16.71	0.31991	0	-0.17345	0	0.03701	-0	0	0	-0	0.902	0	-0.2	0	0	-0
1.289	140.33	724.95	50.76	-0.20887	0	-0.31382	0	0.5606100000000001	-0	-22.58	242.52	19.66	0.32002	0	-0.17454	0	0.02894	-0	0	0	-0	0.902	0	-0.2	0	0	-0
1.2895	140.34	723.52	50.39	-0.20869	0	-0.31386	0	0.46498	-0	-24.83	248.22	22.24	0.32142	0	-0.17521	0	-0.02178	-0	0	0	-0	0.902	0	-0.2	0	0	-0
1.29	141.09	722.1	49.67	-0.20872	0	-0.31393	0	0.41132	-0	-26.7	253.91	24.07	0.32137	0	-0.17487	0	-0.02115	-0	0	0	-0	0.902	0	-0.2	0	0	-0
1.2905	142.21	719.25	49.33	-0.20854	0	-0.314	0	0.4459	-0	-27.81	258.19	24.07	0.32224	0	-0.17472	0	-0.05332	-0	0	0	-0	0.902	0	-0.2	0	0	-0
1.291	142.59	717.83	48.6	-0.20834	0	-0.31387	0	0.48788	-0	-28.54	259.62	22.95	0.32268	0	-0.17503	0	-0.21466	-0	0	0	-0	0.902	0	-0.2	0	0	-0
1.2915	142.22	717.8200000000001	48.6	-0.20836	0	-0.31368	0	0.41714	-0	-30.02	265.32	23.31	0.32265	0	-0.17495	0	-0.17875	-0	0	0	-0	0.902	0	-0.2	0	0	-0
1.292	142.22	714.96	48.61	-0.20798	0	-0.3137200000000001	0	0.44313	-0	-31.88	273.88	24.79	0.32169	0	-0.176	0	-0.2503	-0	0	0	-0	0.902	0	-0.2	0	0	-0
1.2925	142.22	713.52	48.62	-0.20804	0	-0.31355	0	0.41613	-0	-34.13	278.14	26.99	0.32234	0	-0.176	0	-0.30236	-0	0	0	-0	0.902	0	-0.2	0	0	-0
1.293	142.97	712.11	47.9	-0.20808	0	-0.31361	0	0.28503	-0	-35.25	279.56	28.09	0.32337	0	-0.17542	0	-0.20985	-0	0	0	-0	0.902	0	-0.2	0	0	-0
1.2935	143.72	710.6799999999999	47.17	-0.2076	0	-0.31348	0	0.22697	-0	-35.6	285.28	26.61	0.32412	0	-0.17614	0	-0.24398	-0	0	0	-0	0.902	0	-0.2	0	0	-0
1.294	144.1	709.26	46.45	-0.20764	0	-0.31335	0	0.25542	-0	-36.34	289.56	26.6	0.32429	0	-0.17648	0	-0.39536	-0	0	0	-0	0.902	0	-0.2	0	0	-0
1.2945	144.1	706.39	46.46	-0.20726	0	-0.3134	0	0.20392	-0	-36.34	296.69	27.72	0.32373	0	-0.17689	0	-0.48363	-0	0	0	-0	0.902	0	-0.2	0	0	-0
1.295	144.1	704.96	46.84	-0.20732	0	-0.3134	0	0.314	-0	-38.21	300.96	29.93	0.32436	0	-0.17687	0	-0.53877	-0	0	0	-0	0.902	0	-0.2	0	0	-0
1.2955	144.48	703.53	46.11	-0.20685	0	-0.31326	0	0.2117	-0	-40.08	305.23	31.4	0.32497	0	-0.17696	0	-0.45839	-0	0	0	-0	0.902	0	-0.2	0	0	-0
1.296	144.86	702.11	45.39	-0.2069	0	-0.31313	0	0.16226	-0	-41.57	309.5	32.13	0.32561	0	-0.17716	0	-0.4045	-0	0	0	-0	0.902	0	-0.2	0	0	-0
1.2965	145.23	699.25	45.04	-0.20675	0	-0.3132	0	0.18648	-0	-41.92	315.21	31.39	0.3251	0	-0.17722	0	-0.5153099999999999	-0	0	0	-0	0.902	0	-0.2	0	0	-0
1.297	145.24	696.39	44.31	-0.20662	0	-0.31329	0	0.13553	-0	-42.66	320.92	31.02	0.32512	0	-0.17723	0	-0.6685099999999999	-0	0	0	-0	0.902	0	-0.2	0	0	-0
1.2975	145.61	696.39	44.32	-0.20634	0	-0.31288	0	0.13166	-0	-43.77	326.62	32.12	0.32566	0	-0.17747	0	-0.7742	-0	0	0	-0	0.902	0	-0.2	0	0	-0
1.298	145.61	693.53	44.34	-0.2062	0	-0.31273	0	0.19303	-0	-45.64	329.47	33.95	0.32632	0	-0.1774	0	-0.67308	-0	0	0	-0	0.902	0	-0.2	0	0	-0
1.2985	145.62	692.1	43.61	-0.20601	0	-0.31259	0	0.03418	-0	-47.51	333.74	34.68	0.32631	0	-0.17757	0	-0.63302	-0	0	0	-0	0.902	0	-0.2	0	0	-0
1.299	146	689.24	43.25	-0.20585	0	-0.31286	0	0.08724999999999999	-0	-48.98	338.02	34.67	0.3274	0	-0.17742	0	-0.64128	-0	0	0	-0	0.902	0	-0.2	0	0	-0
1.2995	146.01	687.8099999999999	42.52	-0.20565	0	-0.3127200000000001	0	0.004889999999999999	-0	-49.72	345.15	34.67	0.32675	0	-0.17788	0	-0.91031	-0	0	0	-0	0.902	0	-0.2	0	0	-0
1.3	146.01	684.9400000000001	42.54	-0.20551	0	-0.31256	0	0.06576	-0	-50.83	350.85	35.4	0.32775	0	-0.17773	0	-0.91118	-0	0	0	-0	0.902	0	-0.2	0	0	-0
1.3005	146.38	683.52	42.18	-0.20529	0	-0.3124	0	0.05817	-0	-51.95	356.56	36.51	0.32769	0	-0.17754	0	-1.01365	-0	0	0	-0	0.902	0	-0.2	0	0	-0
1.301	146.39	680.65	41.83	-0.20514	0	-0.31267	0	0.14586	-0	-54.56	359.4	37.97	0.32819	0	-0.17791	0	-1.00895	-0	0	0	-0	0.902	0	-0.2	0	0	-0
1.3015	146.02	679.22	41.46	-0.20496	0	-0.31251	0	-0.02423	-0	-56.79	363.67	38.31	0.3296	0	-0.17771	0	-0.89766	-0	0	0	-0	0.902	0	-0.2	0	0	-0
1.302	146.04	676.36	40.74	-0.20482	0	-0.31239	0	-0.10654	-0	-58.63	370.8	37.94	0.32882	0	-0.17817	0	-1.09039	-0	0	0	-0	0.902	0	-0.2	0	0	-0
1.3025	146.41	674.9299999999999	40.38	-0.20459	0	-0.31243	0	-0.00778	-0	-60.47	377.93	37.55	0.32903	0	-0.17786	0	-1.27809	-0	0	0	-0	0.902	0	-0.2	0	0	-0
1.303	146.78	672.0700000000001	40.03	-0.20443	0	-0.31229	0	-0.01513	-0	-61.59	383.64	37.92	0.32943	0	-0.17814	0	-1.25445	-0	0	0	-0	0.902	0	-0.2	0	0	-0
1.3035	146.79	670.64	39.67	-0.20422	0	-0.31212	0	0.01042	-0	-62.7	385.06	38.64	0.33062	0	-0.17738	0	-1.12281	-0	0	0	-0	0.902	0	-0.2	0	0	-0
1.304	146.42	669.2	39.31	-0.20403	0	-0.31196	0	-0.08361	-0	-65.68000000000001	390.76	39.73	0.33079	0	-0.17793	0	-1.1469	-0	0	0	-0	0.902	0	-0.2	0	0	-0
1.3045	146.43	666.34	38.95	-0.20388	0	-0.31202	0	-0.1035	-0	-68.27	397.88	39.71	0.33088	0	-0.17794	0	-1.25812	-0	0	0	-0	0.902	0	-0.2	0	0	-0
1.305	146.06	663.47	38.59	-0.20375	0	-0.31209	0	-0.08875	-0	-70.11	403.59	38.96	0.33115	0	-0.17797	0	-1.31931	-0	0	0	-0	0.902	0	-0.2	0	0	-0
1.3055	146.44	662.04	37.87	-0.20352	0	-0.31194	0	-0.13182	-0	-71.22	409.29	38.58	0.33193	0	-0.1783	0	-1.54055	-0	0	0	-0	0.902	0	-0.2	0	0	-0
1.306	146.81	659.1799999999999	37.88	-0.20334	0	-0.31199	0	-0.07618000000000001	-0	-73.08	412.14	39.67	0.33241	0	-0.17832	0	-1.53676	-0	0	0	-0	0.902	0	-0.2	0	0	-0
1.3065	147.19	654.89	37.54	-0.20322	0	-0.31208	0	-0.05221	-0	-75.31999999999999	419.26	41.51	0.33251	0	-0.1778	0	-1.48086	-0	0	0	-0	0.902	0	-0.2	0	0	-0
1.307	146.46	653.45	36.8	-0.20305	0	-0.31193	0	-0.22313	-0	-77.91	423.54	41.49	0.33321	0	-0.17834	0	-1.45042	-0	0	0	-0	0.902	0	-0.2	0	0	-0
1.3075	146.09	653.45	36.43	-0.20308	0	-0.31152	0	-0.28422	-0	-80.5	430.67	41.1	0.33367	0	-0.17805	0	-1.53497	-0	0	0	-0	0.902	0	-0.2	0	0	-0
1.308	146.47	649.16	36.09	-0.20268	0	-0.31182	0	-0.21947	-0	-82.34	434.94	39.97	0.33399	0	-0.17804	0	-1.75862	-0	0	0	-0	0.902	0	-0.2	0	0	-0
1.3085	146.84	646.3	35.74	-0.20249	0	-0.31167	0	-0.07513	-0	-83.45	439.22	39.96	0.33396	0	-0.17825	0	-1.83747	-0	0	0	-0	0.902	0	-0.2	0	0	-0
1.309	147.22	644.87	35.38	-0.20252	0	-0.3115	0	-0.09670000000000001	-0	-85.68000000000001	443.49	40.68	0.33466	0	-0.17804	0	-1.73275	-0	0	0	-0	0.902	0	-0.2	0	0	-0
1.3095	146.49	642	35.02	-0.20241	0	-0.31156	0	-0.20147	-0	-87.16	450.62	41.42	0.33519	0	-0.17799	0	-1.66147	-0	0	0	-0	0.902	0	-0.2	0	0	-0
1.31	146.5	639.14	34.3	-0.20224	0	-0.31121	0	-0.24254	-0	-89.38	457.75	41.4	0.33524	0	-0.17801	0	-1.7816	-0	0	0	-0	0.902	0	-0.2	0	0	-0
1.3105	146.13	636.27	33.94	-0.2021	0	-0.3115	0	-0.27333	-0	-91.59999999999999	460.6	40.27	0.33559	0	-0.17823	0	-1.86457	-0	0	0	-0	0.902	0	-0.2	0	0	-0
1.311	146.5	634.84	33.96	-0.20185	0	-0.31085	0	-0.31644	-0	-92.69	464.89	39.15	0.33594	0	-0.17792	0	-1.92015	-0	0	0	-0	0.902	0	-0.2	0	0	-0
1.3115	147.24	630.55	33.61	-0.20112	0	-0.31139	0	-0.09068000000000001	-0	-93.43000000000001	469.16	39.51	0.33671	0	-0.17778	0	-1.85415	-0	0	0	-0	0.902	0	-0.2	0	0	-0
1.312	146.88	627.6900000000001	33.25	-0.20126	0	-0.31123	0	-0.19576	-0	-94.55	476.29	40.25	0.33646	0	-0.17773	0	-1.89767	-0	0	0	-0	0.902	0	-0.2	0	0	-0
1.3125	146.89	624.8200000000001	32.53	-0.20109	0	-0.3111	0	-0.2834	-0	-96.03	483.42	40.98	0.33693	0	-0.17769	0	-1.82774	-0	0	0	-0	0.902	0	-0.2	0	0	-0
1.313	146.91	623.39	31.8	-0.20144	0	-0.31117	0	-0.28172	-0	-97.88	489.13	40.97	0.33745	0	-0.17765	0	-1.9276	-0	0	0	-0	0.902	0	-0.2	0	0	-0
1.3135	146.91	619.1	31.45	-0.20074	0	-0.31125	0	-0.28251	-0	-99.72	493.41	39.47	0.33806	0	-0.17767	0	-2.00533	-0	0	0	-0	0.902	0	-0.2	0	0	-0
1.314	146.91	617.67	31.09	-0.20079	0	-0.31107	0	-0.27082	-0	-100.82	496.26	39.09	0.33885	0	-0.17754	0	-2.03421	-0	0	0	-0	0.902	0	-0.2	0	0	-0
1.3145	147.29	614.8099999999999	31.11	-0.20059	0	-0.31089	0	-0.24941	-0	-101.19	501.97	39.46	0.33874	0	-0.17747	0	-2.01603	-0	0	0	-0	0.902	0	-0.2	0	0	-0
1.315	146.93	611.9400000000001	30.76	-0.20073	0	-0.3107200000000001	0	-0.35515	-0	-101.94	507.67	40.94	0.33898	0	-0.17731	0	-1.92696	-0	0	0	-0	0.902	0	-0.2	0	0	-0
1.3155	146.94	609.08	30.04	-0.20026	0	-0.31058	0	-0.43536	-0	-103.06	514.8	42.04	0.33941	0	-0.17725	0	-2.00078	-0	0	0	-0	0.902	0	-0.2	0	0	-0
1.316	147.31	604.78	29.69	-0.1998	0	-0.3109	0	-0.29345	-0	-104.53	517.65	41.66	0.34013	0	-0.17712	0	-2.02382	-0	0	0	-0	0.902	0	-0.2	0	0	-0
1.3165	147.69	603.36	28.97	-0.20014	0	-0.31051	0	-0.39515	-0	-106	520.5	40.16	0.34048	0	-0.17736	0	-2.06621	-0	0	0	-0	0.902	0	-0.2	0	0	-0
1.317	146.95	600.49	28.97	-0.2	0	-0.31055	0	-0.38905	-0	-106.37	523.36	39.42	0.34057	0	-0.17754	0	-2.10579	-0	0	0	-0	0.902	0	-0.2	0	0	-0
1.3175	147.33	596.1900000000001	28.63	-0.19953	0	-0.31064	0	-0.28134	-0	-106.36	530.49	39.8	0.34072	0	-0.17728	0	-2.14049	-0	0	0	-0	0.902	0	-0.2	0	0	-0
1.318	147.71	594.77	28.28	-0.19987	0	-0.31021	0	-0.34982	-0	-106.73	536.2	40.91	0.34128	0	-0.17716	0	-2.13719	-0	0	0	-0	0.902	0	-0.2	0	0	-0
1.3185	147.72	590.47	27.19	-0.19913	0	-0.31059	0	-0.30967	-0	-107.85	539.05	41.64	0.34166	0	-0.17722	0	-2.08005	-0	0	0	-0	0.902	0	-0.2	0	0	-0
1.319	147.73	587.61	26.84	-0.19925	0	-0.31041	0	-0.3749	-0	-108.95	543.33	40.89	0.34224	0	-0.17666	0	-2.08537	-0	0	0	-0	0.902	0	-0.2	0	0	-0
1.3195	147.36	584.74	26.48	-0.19908	0	-0.31024	0	-0.47372	-0	-109.3	549.04	39.41	0.34244	0	-0.17676	0	-2.06834	-0	0	0	-0	0.902	0	-0.2	0	0	-0
1.32	147.74	581.89	26.5	-0.19916	0	-0.31004	0	-0.38646	-0	-109.65	553.33	37.56	0.34273	0	-0.17657	0	-2.0303	-0	0	0	-0	0.902	0	-0.2	0	0	-0
1.3205	147.74	577.59	25.78	-0.1987	0	-0.3104	0	-0.3202	-0	-110.01	560.46	37.19	0.34313	0	-0.17639	0	-2.08619	-0	0	0	-0	0.902	0	-0.2	0	0	-0
1.321	147.75	574.73	25.43	-0.1985	0	-0.3102200000000001	0	-0.3781600000000001	-0	-110.76	561.89	37.92	0.34362	0	-0.17638	0	-2.10138	-0	0	0	-0	0.902	0	-0.2	0	0	-0
1.3215	147.76	571.86	24.71	-0.19862	0	-0.31007	0	-0.4019	-0	-111.86	566.17	37.91	0.34417	0	-0.17605	0	-1.94818	-0	0	0	-0	0.902	0	-0.2	0	0	-0
1.322	147.77	569	23.98	-0.19842	0	-0.31016	0	-0.38184	-0	-112.96	569.02	36.79	0.34482	0	-0.176	0	-1.94587	-0	0	0	-0	0.902	0	-0.2	0	0	-0
1.3225	147.04	566.13	23.62	-0.19826	0	-0.30973	0	-0.55989	-0	-114.06	574.73	35.3	0.34492	0	-0.1761	0	-1.9219	-0	0	0	-0	0.902	0	-0.2	0	0	-0
1.323	147.05	561.83	23.28	-0.19843	0	-0.30981	0	-0.5109900000000001	-0	-114.41	579.02	33.45	0.34518	0	-0.17567	0	-1.94035	-0	0	0	-0	0.902	0	-0.2	0	0	-0
1.3235	147.42	558.97	23.3	-0.19786	0	-0.30986	0	-0.37319	-0	-114.4	581.87	33.45	0.34559	0	-0.17555	0	-1.9149	-0	0	0	-0	0.902	0	-0.2	0	0	-0
1.324	147.43	557.54	22.57	-0.19793	0	-0.30942	0	-0.5142	-0	-115.51	584.72	33.07	0.34622	0	-0.17544	0	-1.80109	-0	0	0	-0	0.902	0	-0.2	0	0	-0
1.3245	147.44	551.8200000000001	21.49	-0.1975	0	-0.3098399999999999	0	-0.48087	-0	-116.99	586.15	33.05	0.34662	0	-0.17525	0	-1.81396	-0	0	0	-0	0.902	0	-0.2	0	0	-0
